<svg xmlns="http://www.w3.org/2000/svg" width="351" height="87" viewBox="0 0 351 87">
<g>
<path d="M 130.87,56.26 L 131.81,56.32 L 133.39,56.67 L 133.74,56.78 L 134.25,57.04 L 134.67,57.50 L 134.73,57.71 L 134.65,58.35 L 134.57,58.69 L 134.24,59.52 L 133.86,60.39 L 132.68,62.28 L 132.07,63.18 L 130.81,64.57 L 130.51,64.85 L 130.00,65.17 L 129.77,65.29 L 129.42,65.21 L 129.27,65.11 L 128.85,64.68 L 128.63,64.42 L 128.10,63.74 L 126.43,61.21 L 126.02,60.49 L 125.48,59.45 L 125.26,58.98 L 125.11,58.32 L 125.08,58.02 L 125.29,57.57 L 126.01,56.95 L 126.47,56.65 L 128.08,56.33 L 128.95,56.22 M 71.14,56.24 L 72.45,56.92 L 72.55,57.08 L 72.53,57.64 L 72.49,57.95 L 72.24,58.73 L 71.94,59.55 L 70.87,61.45 L 70.30,62.37 L 69.06,63.92 L 68.76,64.25 L 68.20,64.71 L 67.50,65.00 L 67.32,65.00 L 66.83,64.72 L 66.57,64.55 L 65.98,63.98 L 65.37,63.34 L 64.14,61.51 L 63.64,60.66 L 63.01,59.51 L 62.75,59.01 L 62.61,58.36 L 62.60,58.07 L 62.94,57.65 L 63.98,57.01 L 64.57,56.70 L 66.19,56.29 L 67.04,56.13 L 68.82,56.03 L 69.68,56.02 Z" fill="rgba(154,148,169,1)"/>
<path d="M 13.00,45.13 L 13.00,23.00 L 21.63,23.00 L 23.02,23.00 L 25.52,23.07 L 26.73,23.12 L 28.89,23.31 L 29.93,23.42 L 31.82,23.73 L 32.73,23.91 L 34.38,24.37 L 35.98,24.87 L 38.73,26.37 L 42.56,29.51 L 43.83,30.78 L 45.77,33.63 L 46.65,35.10 L 47.83,38.24 L 48.33,39.84 L 48.77,43.13 L 48.90,44.78 L 48.61,48.07 L 48.38,49.70 L 47.40,52.83 L 46.82,54.37 L 45.15,57.20 L 44.24,58.56 L 41.91,60.95 L 37.70,63.85 L 36.75,64.34 L 34.91,65.09 L 33.97,65.42 L 31.89,65.91 L 30.79,66.13 L 28.10,66.44 L 27.37,66.51 L 25.74,66.63 L 22.96,66.79 L 13.00,67.27 L 13.00,45.13 M 34.54,55.57 L 34.90,55.33 L 35.72,54.56 L 36.13,54.13 L 36.97,53.08 L 39.09,49.54 L 39.48,48.65 L 40.01,47.23 L 40.22,46.56 L 40.42,45.42 L 40.47,44.86 L 40.35,43.76 L 39.85,41.87 L 39.57,41.04 L 38.87,39.51 L 38.50,38.77 L 37.62,37.45 L 37.16,36.82 L 36.11,35.71 L 35.57,35.19 L 34.37,34.30 L 33.75,33.89 L 32.41,33.23 L 31.72,32.93 L 30.24,32.52 L 29.49,32.34 L 27.89,32.16 L 25.38,32.18 L 21.50,32.50 L 21.22,43.94 L 21.18,45.51 L 21.15,48.49 L 21.14,49.93 L 21.18,52.44 L 21.20,53.61 L 21.29,55.35 L 21.32,55.73 L 21.38,56.29 L 21.48,56.81 L 21.58,57.06 L 22.11,57.42 L 22.43,57.57 L 23.33,57.77 L 23.82,57.85 L 24.99,57.90 L 25.60,57.90 L 26.94,57.80 L 28.30,57.67 L 31.08,57.03 L 31.75,56.84 L 32.97,56.38 L 33.56,56.13 M 47.87,66.54 L 47.83,66.50 L 47.93,65.99 L 48.00,65.67 L 48.30,64.63 L 48.47,64.05 L 48.95,62.55 L 49.21,61.74 L 49.86,59.84 L 50.20,58.84 L 50.99,56.58 L 51.40,55.42 L 52.31,52.88 L 55.41,44.49 L 63.50,23.00 L 67.50,23.02 L 71.50,23.04 L 79.26,43.77 L 80.33,46.62 L 82.28,51.92 L 82.74,53.19 L 83.59,55.55 L 84.01,56.70 L 84.74,58.78 L 85.09,59.77 L 85.69,61.50 L 85.97,62.31 L 86.41,63.63 L 86.60,64.23 L 86.86,65.08 L 87.01,65.75 L 87.01,65.95 L 86.68,66.27 L 86.47,66.42 L 85.80,66.65 L 85.07,66.86 L 83.08,67.00 L 82.07,67.02 L 80.19,66.76 L 79.77,66.68 L 79.09,66.42 L 78.45,65.92 L 78.41,65.85 L 78.22,65.44 L 78.11,65.19 L 77.82,64.47 L 77.66,64.07 L 77.26,63.07 L 77.05,62.54 L 76.58,61.30 L 76.08,60.02 L 74.91,56.89 L 73.00,51.71 L 72.35,49.90 L 71.08,46.59 L 70.47,45.00 L 69.38,42.35 L 69.12,41.75 L 68.66,40.70 L 68.44,40.22 L 68.07,39.44 L 67.90,39.09 L 67.63,38.62 L 67.36,38.30 L 67.30,38.28 L 67.09,38.54 L 66.96,38.71 L 66.63,39.32 L 66.45,39.66 L 66.02,40.59 L 65.80,41.09 L 65.28,42.29 L 64.75,43.55 L 63.51,46.76 L 61.50,52.26 L 56.50,66.50 L 52.46,66.80 L 51.35,66.88 L 49.45,66.84 L 49.03,66.82 L 48.41,66.73 L 48.14,66.68 M 95.59,66.15 L 95.56,66.09 L 95.49,65.63 L 95.45,65.35 L 95.38,64.47 L 95.35,63.98 L 95.28,62.74 L 95.25,62.08 L 95.19,60.52 L 95.13,58.88 L 95.04,54.88 L 94.95,48.15 L 94.83,31.00 L 88.67,31.00 L 82.50,31.00 L 82.50,27.25 L 82.50,23.50 L 98.75,23.23 L 115.00,22.95 L 115.00,26.93 L 115.00,30.90 L 109.25,31.20 L 103.50,31.50 L 103.23,49.25 L 102.95,67.00 L 99.54,67.00 L 98.60,67.00 L 96.97,66.75 L 96.61,66.67 L 96.07,66.48 L 95.83,66.38 M 110.00,66.10 L 110.00,66.04 L 110.16,65.49 L 110.27,65.16 L 110.62,64.10 L 110.82,63.52 L 111.36,62.02 L 111.64,61.22 L 112.32,59.34 L 112.68,58.35 L 113.49,56.14 L 113.92,55.00 L 114.84,52.52 L 117.91,44.35 L 125.82,23.50 L 129.78,23.20 L 130.42,23.15 L 131.52,23.15 L 132.03,23.17 L 132.85,23.31 L 133.23,23.39 L 133.77,23.66 L 134.23,24.20 L 134.27,24.29 L 134.49,24.87 L 134.62,25.22 L 135.03,26.29 L 135.25,26.88 L 135.82,28.37 L 136.12,29.16 L 136.82,31.02 L 137.19,31.99 L 138.01,34.16 L 138.44,35.28 L 139.36,37.70 L 142.36,45.60 L 143.41,48.37 L 145.33,53.46 L 145.78,54.68 L 146.62,56.94 L 147.03,58.03 L 147.76,59.99 L 148.10,60.93 L 148.69,62.55 L 148.97,63.31 L 149.40,64.52 L 149.59,65.07 L 149.84,65.81 L 150.00,66.35 L 150.00,66.44 L 149.65,66.61 L 149.43,66.68 L 148.70,66.81 L 145.58,67.00 L 144.49,67.00 L 143.02,66.92 L 142.38,66.84 L 141.52,66.38 L 141.13,66.08 L 140.51,64.97 L 140.35,64.64 L 140.02,63.80 L 139.45,62.25 L 139.21,61.60 L 138.61,59.93 L 138.29,59.06 L 137.58,57.13 L 135.48,51.50 L 134.86,49.85 L 133.50,46.16 L 133.18,45.28 L 132.60,43.68 L 131.91,41.75 L 131.55,40.72 L 130.79,39.10 L 130.61,38.76 L 130.29,38.30 L 129.93,38.00 L 129.88,38.00 L 129.69,38.30 L 129.57,38.49 L 129.25,39.14 L 129.08,39.51 L 128.65,40.49 L 128.43,41.01 L 127.91,42.26 L 127.37,43.57 L 126.09,46.87 L 124.00,52.50 L 118.74,67.00 L 114.37,67.00 L 113.17,67.00 L 111.28,66.74 L 110.89,66.65 L 110.34,66.45 L 110.12,66.34 M 162.24,65.67 L 161.15,65.27 L 159.11,64.25 L 158.12,63.71 L 156.30,62.42 L 155.42,61.75 L 153.83,60.22 L 153.07,59.43 L 151.74,57.68 L 151.11,56.79 L 150.06,54.86 L 149.57,53.87 L 148.81,51.79 L 148.47,50.73 L 148.03,48.51 L 147.75,45.08 L 147.75,43.92 L 147.95,41.68 L 148.08,40.59 L 148.56,38.49 L 148.84,37.47 L 149.59,35.53 L 150.00,34.57 L 151.02,32.79 L 151.57,31.92 L 152.85,30.31 L 153.52,29.53 L 155.06,28.09 L 155.86,27.40 L 157.65,26.16 L 160.60,24.52 L 161.66,24.01 L 164.39,23.34 L 165.82,23.06 L 168.94,22.85 L 170.50,22.80 L 173.54,23.06 L 177.50,23.99 L 178.50,24.38 L 180.68,25.57 L 181.76,26.22 L 183.76,27.67 L 184.70,28.40 L 186.08,29.78 L 186.37,30.10 L 186.76,30.68 L 187.00,31.39 L 187.00,31.57 L 186.74,32.04 L 186.57,32.28 L 186.02,32.83 L 183.65,34.49 L 182.83,34.93 L 181.68,35.48 L 181.16,35.69 L 180.32,35.74 L 179.91,35.71 L 178.98,35.23 L 177.07,33.89 L 175.95,33.07 L 173.54,32.07 L 172.32,31.68 L 169.84,31.49 L 168.60,31.49 L 166.18,32.01 L 164.99,32.35 L 162.79,33.50 L 161.74,34.14 L 159.91,35.81 L 159.05,36.71 L 157.74,38.82 L 157.17,39.93 L 156.53,42.39 L 156.49,46.38 L 156.70,47.82 L 157.61,50.35 L 158.14,51.55 L 159.58,53.56 L 160.36,54.49 L 162.23,55.94 L 163.21,56.59 L 165.39,57.45 L 166.51,57.80 L 168.89,58.04 L 170.09,58.07 L 172.56,57.64 L 173.80,57.34 L 176.24,56.21 L 179.75,53.70 L 180.23,53.26 L 180.97,52.49 L 181.30,52.12 L 181.73,51.48 L 181.90,51.18 L 182.02,50.67 L 182.03,50.43 L 181.82,50.03 L 181.67,49.85 L 181.13,49.56 L 180.82,49.43 L 179.94,49.24 L 179.46,49.16 L 178.23,49.06 L 176.00,49.00 L 170.00,49.00 L 170.00,44.75 L 170.00,40.50 L 180.71,40.64 L 182.55,40.67 L 185.52,40.78 L 186.88,40.84 L 188.93,41.04 L 189.84,41.15 L 191.01,41.44 L 191.83,41.99 L 191.89,42.16 L 191.89,42.94 L 191.87,43.40 L 191.74,44.65 L 190.95,49.35 L 190.62,50.98 L 189.45,53.99 L 188.79,55.44 L 187.06,58.04 L 186.14,59.29 L 183.94,61.44 L 182.79,62.45 L 180.22,64.09 L 178.90,64.84 L 176.05,65.92 L 174.60,66.39 L 171.57,66.85 L 170.04,67.00 L 166.92,66.79 L 165.35,66.60 M 193.00,45.06 L 193.00,23.00 L 203.27,23.00 L 204.27,23.00 L 206.05,23.02 L 206.90,23.03 L 208.42,23.08 L 209.87,23.14 L 212.13,23.38 L 213.18,23.52 L 214.85,23.94 L 217.02,24.83 L 218.08,25.39 L 219.83,26.91 L 220.65,27.72 L 221.92,29.64 L 222.50,30.64 L 223.27,32.84 L 223.59,33.95 L 223.86,36.29 L 223.93,37.46 L 223.69,39.80 L 223.50,40.96 L 222.73,43.18 L 222.28,44.26 L 220.99,46.21 L 218.44,48.70 L 215.64,50.74 L 220.33,57.31 L 221.18,58.51 L 222.57,60.47 L 223.21,61.39 L 224.18,62.85 L 224.61,63.53 L 225.17,64.57 L 225.40,65.05 L 225.56,65.74 L 225.58,66.04 L 225.35,66.45 L 225.18,66.63 L 224.55,66.83 L 224.19,66.91 L 223.17,66.98 L 221.23,67.00 L 216.25,67.00 L 211.12,59.59 L 210.58,58.80 L 209.66,57.43 L 209.22,56.77 L 208.49,55.61 L 207.81,54.49 L 206.93,52.69 L 206.56,51.82 L 206.19,50.22 L 206.00,47.59 L 206.00,46.56 L 206.07,45.14 L 206.12,44.52 L 206.37,43.75 L 206.53,43.44 L 207.06,43.14 L 208.28,43.00 L 208.95,43.00 L 210.19,42.77 L 210.79,42.61 L 211.84,42.11 L 212.34,41.83 L 213.17,41.12 L 213.56,40.74 L 214.15,39.85 L 214.42,39.39 L 214.74,38.39 L 214.86,37.88 L 214.89,36.81 L 214.86,36.27 L 214.55,35.19 L 213.69,33.59 L 213.49,33.31 L 212.77,32.81 L 212.37,32.56 L 211.34,32.14 L 210.27,31.74 L 207.68,31.24 L 206.40,31.06 L 204.11,31.11 L 203.60,31.16 L 202.80,31.38 L 202.05,31.93 L 201.99,32.01 L 201.89,32.51 L 201.84,32.81 L 201.75,33.71 L 201.70,34.21 L 201.61,35.46 L 201.57,36.13 L 201.49,37.68 L 201.42,39.30 L 201.31,43.25 L 201.21,49.82 L 201.13,66.50 L 197.07,66.81 L 193.00,67.11 L 193.00,45.06 M 239.00,64.92 L 237.88,64.41 L 235.86,63.29 L 234.89,62.71 L 233.17,61.44 L 232.35,60.79 L 230.93,59.37 L 230.26,58.64 L 229.13,57.05 L 228.59,56.23 L 227.74,54.46 L 227.35,53.55 L 226.77,51.59 L 226.51,50.58 L 226.19,48.42 L 226.00,44.93 L 226.00,43.77 L 226.23,41.56 L 226.38,40.47 L 226.89,38.40 L 227.17,37.39 L 227.94,35.48 L 228.35,34.55 L 229.35,32.81 L 229.88,31.96 L 231.09,30.40 L 231.71,29.65 L 233.10,28.29 L 234.54,26.97 L 237.85,24.99 L 239.56,24.11 L 243.30,23.07 L 244.25,22.87 L 246.19,22.67 L 247.17,22.61 L 249.15,22.68 L 250.15,22.75 L 252.14,23.10 L 253.14,23.31 L 255.13,23.96 L 256.11,24.32 L 258.06,25.27 L 260.92,27.06 L 262.30,28.06 L 264.57,30.42 L 265.63,31.65 L 267.26,34.39 L 267.99,35.79 L 268.96,38.78 L 269.37,40.30 L 269.69,43.43 L 269.76,45.00 L 269.41,48.14 L 269.16,49.70 L 268.14,52.73 L 267.55,54.22 L 265.85,57.03 L 262.55,60.85 L 261.69,61.64 L 259.91,62.99 L 259.00,63.63 L 257.13,64.67 L 256.19,65.16 L 254.25,65.89 L 253.27,66.22 L 251.28,66.65 L 250.28,66.82 L 248.25,66.93 L 247.23,66.95 L 245.18,66.74 L 244.15,66.60 L 242.09,66.07 L 241.06,65.76 M 254.81,55.97 L 255.50,55.55 L 256.69,54.60 L 257.26,54.10 L 258.21,53.01 L 259.11,51.90 L 260.22,49.39 L 260.66,48.11 L 260.91,45.44 L 260.94,44.10 L 260.39,41.47 L 260.03,40.18 L 258.75,37.81 L 258.03,36.68 L 256.08,34.80 L 255.03,33.94 L 252.47,32.75 L 251.79,32.51 L 250.34,32.20 L 248.01,32.00 L 246.38,32.00 L 243.50,32.63 L 242.13,33.04 L 239.81,34.36 L 238.72,35.10 L 237.01,36.97 L 236.24,37.96 L 235.20,40.21 L 234.77,41.37 L 234.46,43.86 L 234.41,45.12 L 234.88,47.68 L 235.23,48.96 L 236.55,51.44 L 239.55,54.91 L 240.62,55.85 L 243.03,57.10 L 244.26,57.62 L 246.87,58.02 L 248.19,58.12 L 250.87,57.65 L 252.21,57.31 M 282.88,64.25 L 282.22,62.56 L 280.72,58.68 L 279.96,56.68 L 278.33,52.38 L 276.69,48.03 L 273.46,39.35 L 272.70,37.28 L 271.32,33.51 L 270.66,31.71 L 269.58,28.70 L 269.34,28.01 L 268.92,26.83 L 268.73,26.27 L 268.42,25.38 L 268.29,24.97 L 268.11,24.41 L 268.00,23.98 L 268.00,23.84 L 268.35,23.60 L 268.57,23.48 L 269.29,23.29 L 272.39,23.00 L 276.79,23.00 L 281.39,35.58 L 282.03,37.31 L 283.18,40.55 L 283.73,42.10 L 284.65,44.76 L 285.06,45.99 L 285.64,47.78 L 285.75,48.16 L 285.91,48.71 L 286.00,49.16 L 286.00,49.44 L 286.34,49.76 L 287.15,49.78 L 287.22,49.76 L 287.47,49.44 L 287.61,49.25 L 287.96,48.61 L 288.15,48.26 L 288.59,47.35 L 288.83,46.86 L 289.34,45.71 L 289.87,44.50 L 291.09,41.51 L 293.01,36.45 L 297.73,23.50 L 302.50,23.19 L 303.39,23.13 L 304.73,23.11 L 305.33,23.11 L 306.12,23.23 L 306.46,23.31 L 306.78,23.58 L 306.80,24.19 L 306.76,24.28 L 306.54,24.88 L 306.41,25.24 L 306.00,26.34 L 305.77,26.94 L 305.20,28.48 L 304.89,29.29 L 304.17,31.21 L 303.80,32.21 L 302.96,34.44 L 302.53,35.60 L 301.59,38.09 L 298.52,46.25 L 290.71,67.00 L 287.33,67.00 L 286.64,67.00 L 285.59,66.89 L 285.12,66.80 L 284.40,66.47 L 284.07,66.26 L 283.55,65.63 L 283.31,65.26 M 309.19,62.75 L 309.50,58.50 L 322.60,58.22 L 324.42,58.18 L 327.44,58.15 L 328.86,58.14 L 331.15,58.19 L 332.21,58.22 L 333.85,58.39 L 334.60,58.49 L 335.70,58.82 L 336.19,59.00 L 336.83,59.51 L 337.10,59.80 L 337.37,60.53 L 337.47,60.93 L 337.48,61.93 L 337.27,63.75 L 336.77,67.00 L 322.83,67.00 L 308.89,67.00 L 309.19,62.75 M 309.00,45.00 L 309.00,40.95 L 323.18,41.22 L 337.37,41.50 L 337.37,45.00 L 337.37,48.50 L 323.18,48.78 L 309.00,49.05 L 309.00,45.00 M 309.00,27.00 L 309.00,23.00 L 323.00,23.00 L 337.00,23.00 L 337.00,27.00 L 337.00,31.00 L 323.00,31.00 L 309.00,31.00 L 309.00,27.00 Z" fill="rgba(253,253,253,1)"/>
</g>
</svg>